<svg width="262" height="290" viewBox="0 0 262 290" fill="none" xmlns="http://www.w3.org/2000/svg">
<path fill-rule="evenodd" clip-rule="evenodd" d="M65.5673 218.984C62.5603 222.049 59.3523 224.91 56.0583 227.663C52.8073 230.379 49.6783 233.314 46.2383 235.793C45.4383 236.372 44.5993 235.129 45.2273 234.472C48.1833 231.372 51.5743 228.672 54.7273 225.786C57.8599 222.91 61.1389 220.197 64.5513 217.659C65.3453 217.071 66.2093 218.33 65.5673 218.984ZM37.8503 175.823C31.7983 178.023 25.6413 180.008 19.4103 181.644C13.1353 183.292 6.66435 184.083 0.551348 185.716C0.369617 185.778 0.21557 185.901 0.116527 186.066C0.0174846 186.23 -0.0201553 186.424 0.0102824 186.614C0.0407201 186.803 0.137268 186.976 0.282806 187.101C0.428344 187.226 0.613468 187.295 0.805347 187.297C7.25835 187.475 13.9793 185.821 20.1873 184.212C26.5291 182.571 32.7051 180.346 38.6363 177.565C39.6183 177.1 38.8713 175.452 37.8503 175.823ZM43.3503 135.012C39.0681 132.588 34.6543 130.404 30.1293 128.471C25.4773 126.371 20.9913 124.759 16.3293 122.839C15.5373 122.513 14.9033 123.832 15.6813 124.218C20.1413 126.435 24.2683 128.733 28.8553 130.831C33.336 132.99 37.9334 134.898 42.6263 136.545C42.8226 136.603 43.033 136.588 43.2197 136.505C43.4063 136.421 43.5569 136.273 43.6442 136.088C43.7316 135.903 43.75 135.693 43.6961 135.496C43.6422 135.298 43.5196 135.127 43.3503 135.012ZM74.9243 147.97C75.2243 146.786 73.5243 146.285 72.9613 147.282C70.7693 151.143 70.0313 155.837 69.8553 160.216C69.6833 164.458 69.9423 169.429 72.1273 173.178C72.5823 173.959 73.9823 173.501 73.7813 172.642C72.7753 168.602 72.3657 164.437 72.5653 160.279C72.7183 156.03 73.8793 152.055 74.9243 147.97ZM81.4963 131.955C79.3213 133.408 76.0963 138.236 75.6093 141.07C75.5355 141.333 75.563 141.613 75.6863 141.857C75.8097 142.1 76.0199 142.288 76.2754 142.384C76.5308 142.48 76.813 142.476 77.0659 142.374C77.3189 142.272 77.5242 142.078 77.6413 141.832C78.9508 138.886 80.6014 136.104 82.5593 133.543C83.5183 132.384 82.3183 131.409 81.4963 131.955ZM79.9043 202.319C73.9157 197.29 69.1321 190.981 65.9062 183.858C62.6803 176.734 61.0943 168.977 61.2653 161.159C61.5091 153.218 63.5171 145.431 67.1436 138.362C70.7701 131.294 75.9243 125.121 82.2323 120.291C82.4179 120.144 82.5397 119.931 82.5728 119.696C82.6058 119.462 82.5474 119.224 82.4097 119.031C82.272 118.838 82.0656 118.706 81.833 118.661C81.6005 118.617 81.3597 118.663 81.1603 118.791C74.1097 123.84 68.3797 130.514 64.4558 138.248C60.5319 145.982 58.5295 154.547 58.6183 163.219C58.8743 183.062 68.7483 197.711 84.2293 208.835C92.7293 214.946 102.429 221.394 104.599 232.402C104.79 233.374 106.273 233.307 106.173 232.272C104.784 217.87 89.7513 210.574 79.9043 202.319ZM201.611 145.448C201.175 144.57 199.64 145.239 200.017 146.159C202.267 151.601 203.369 157.448 203.255 163.335C203.141 169.222 201.814 175.022 199.356 180.373C193.249 193.31 181.88 198.1 173.184 208.189C168.804 213.271 165.184 219.689 165.82 226.62C165.834 226.832 165.928 227.031 166.084 227.176C166.24 227.32 166.446 227.399 166.659 227.395C166.871 227.392 167.075 227.307 167.226 227.158C167.378 227.008 167.466 226.806 167.472 226.594C167.894 218.329 172.372 212.179 177.923 206.788C186.681 198.275 196.102 193.054 201.548 181.35C206.787 170.091 207.172 156.667 201.611 145.448ZM210.243 220.698C206.243 218.345 201.029 215.051 196.823 213.364C195.879 212.985 195.484 214.307 196.139 214.847C199.627 217.724 205.044 220.728 209.022 223.115C213.404 225.744 217.77 228.399 222.346 230.683C222.582 230.821 222.863 230.863 223.129 230.798C223.394 230.733 223.624 230.567 223.77 230.336C223.916 230.105 223.966 229.825 223.91 229.558C223.853 229.29 223.695 229.055 223.468 228.902C219.21 225.929 214.718 223.328 210.243 220.7V220.698ZM257.948 167.277C252.705 166.757 247.437 166.528 242.168 166.591C236.836 166.505 231.507 166.458 226.176 166.603C225.253 166.628 225.176 168.182 226.111 168.249C231.362 168.624 236.623 168.815 241.886 168.963C247.215 169.266 252.557 169.273 257.886 168.985C258.09 168.959 258.278 168.862 258.416 168.71C258.555 168.558 258.635 168.362 258.643 168.157C258.65 167.952 258.584 167.751 258.457 167.59C258.33 167.428 258.15 167.317 257.948 167.277ZM230.16 124.477C234.599 123.24 238.93 121.643 243.109 119.703C247.342 117.855 251.369 115.569 255.125 112.881C256.069 112.158 254.989 110.767 253.988 111.23C249.888 113.125 246.009 115.47 241.928 117.407C238.019 119.262 233.606 121.419 229.643 123.047C229.486 123.137 229.366 123.28 229.304 123.45C229.242 123.62 229.241 123.807 229.303 123.977C229.365 124.147 229.485 124.29 229.641 124.381C229.798 124.472 229.982 124.504 230.16 124.473V124.477ZM170.095 82.3769C158.224 73.4339 148.407 69.8509 133.815 66.7209C132.973 66.5399 133.223 65.2309 134.046 65.2599C139.523 65.5549 144.922 66.6877 150.055 68.6189C146.43 60.4659 139.492 54.5409 133.604 53.0989C126.983 55.8189 117.448 63.7439 114.564 67.2159C118.246 78.0159 107.23 86.9679 94.2073 81.7579C86.4979 84.9125 79.3785 89.3503 73.1513 94.8829C78.6873 97.3829 84.4613 107.147 86.2423 115.395C94.0983 112.465 103.215 109.317 111.789 110.186C120.363 111.055 146.845 124.295 158.566 126.9C152.832 117.812 157.061 96.2459 170.095 82.3689V82.3769Z" fill="#EC615B"/>
<path fill-rule="evenodd" clip-rule="evenodd" d="M101.878 235.943C110.994 249.117 106.178 268.812 116.63 281.522C128.62 296.104 153.32 290.204 160.366 276.457C167.401 262.731 162.726 253.157 169.309 230.734C148.545 243.029 115.696 240.714 101.878 235.943ZM156.269 268.833C152.483 273.66 146.35 276.915 140.634 278.81C134.74 280.913 128.389 281.397 122.243 280.21C122.064 280.157 121.91 280.042 121.808 279.885C121.706 279.728 121.664 279.54 121.689 279.355C121.714 279.17 121.805 279 121.944 278.876C122.084 278.751 122.264 278.681 122.45 278.678C128.394 279.056 134.354 278.235 139.974 276.264C145.592 274.378 150.786 271.411 155.263 267.529C156.057 266.881 156.791 268.168 156.269 268.833ZM158.698 256.179C154.67 261.694 148.681 264.997 142.183 266.817C137.611 268.097 123.903 270.096 119.047 268.736C118.267 268.517 118.347 267.254 119.077 267.26C126.455 267.117 133.795 266.16 140.962 264.405C147.135 262.788 152.774 259.579 157.318 255.1C158.009 254.392 159.292 255.367 158.698 256.179V256.179ZM158.731 242.727C159.449 242.279 160.498 243.185 159.819 243.91C155.319 248.716 146.004 252.71 139.668 254.38C132.265 256.424 124.505 256.825 116.93 255.556C115.912 255.378 116.23 253.929 117.219 254.009C124.558 254.646 131.952 253.988 139.062 252.064C147.478 249.7 151.969 246.946 158.731 242.727V242.727ZM155.911 147.308C150.173 144.881 147.619 147.028 146.089 152.557C143.214 162.984 141.532 173.703 141.074 184.509C134.873 185.604 128.554 185.868 122.283 185.292C121.024 179.65 116.763 161.557 113.583 157.043C111.501 154.083 108.19 153.697 105.357 155.826C102.307 158.118 97.2573 167.29 95.4993 171.103C92.9993 176.515 94.4353 179.362 99.6503 181.72C106.179 184.663 113.122 186.586 120.234 187.42C121.742 194.308 122.95 201.145 123.827 208.149C124.766 215.636 125.347 223.449 125.937 230.995C125.951 231.189 126.039 231.371 126.183 231.502C126.327 231.633 126.517 231.704 126.712 231.699C126.906 231.694 127.092 231.614 127.229 231.476C127.367 231.338 127.446 231.152 127.449 230.957C127.615 223.149 127.183 215.34 126.157 207.598C125.32 200.921 124.191 194.257 122.796 187.673C128.866 188.187 134.976 187.945 140.986 186.954C140.599 200.365 142.106 213.764 145.464 226.754C145.824 228.121 147.903 227.505 147.564 226.137C144.372 213.192 142.943 199.875 143.318 186.548C151.018 185.013 164.753 180.391 169.924 173.982C174.591 168.197 172.103 161.269 167.71 156.082C164.506 152.287 160.468 149.284 155.911 147.308V147.308ZM102.739 180.576C96.7893 178.149 94.8623 177.301 98.2203 170.81C100.009 167.353 103.432 160.936 106.087 158.31C107.557 156.859 109.551 156.11 111.133 157.817C113.933 160.849 118.665 180.45 119.708 184.987C113.885 184.257 108.181 182.774 102.739 180.576V180.576ZM168.169 172.376C163.853 178.188 150.546 182.551 143.417 184.059C143.834 175.192 145.662 160.24 148.829 151.545C149.829 148.811 151.281 148.295 154.029 149.194C159.804 151.088 166.615 156.92 169.074 162.383C169.866 163.968 170.201 165.743 170.042 167.508C169.882 169.273 169.233 170.959 168.169 172.376V172.376ZM106.783 41.2119C103.877 42.2909 103.473 45.5899 104.152 48.3509C103.646 48.2969 103.134 48.3588 102.655 48.5321C102.176 48.7054 101.743 48.9854 101.388 49.3509C100.035 46.5999 96.9043 44.2129 93.8803 45.9299C91.3333 47.3759 91.2173 51.2169 91.9263 53.7099C90.7263 54.1899 89.2533 54.4459 87.9813 54.9419C87.827 55.0176 87.7047 55.1459 87.6365 55.3037C87.5683 55.4615 87.5586 55.6385 87.6092 55.8028C87.6599 55.9671 87.7675 56.1079 87.9127 56.2C88.0579 56.292 88.2312 56.3292 88.4013 56.3049C89.6623 56.0729 91.2113 55.6049 92.5013 55.2569C93.8473 58.1909 96.5893 60.9799 100.057 59.2149C103.509 57.4589 103.147 54.0369 102.049 50.9329C102.338 50.5235 102.745 50.2128 103.216 50.0426C103.687 49.8725 104.199 49.8513 104.682 49.9819C105.722 52.6249 108.222 56.1759 111.498 54.5909C114.774 53.0059 114.172 48.6909 113.249 45.9089C112.326 43.1269 110 40.0189 106.783 41.2119ZM99.4403 57.7379C96.6043 59.2379 94.4823 56.2589 93.6753 53.9519C93.0063 52.0359 92.6833 48.6249 94.6163 47.3569C97.1463 45.6969 99.5823 48.9339 100.372 50.9999C101.253 53.3059 102.069 56.3499 99.4403 57.7379ZM110.86 53.1459C108.139 54.2889 106.643 51.0629 105.842 49.0459C105.01 46.9529 104.77 43.5289 107.315 42.6739C109.837 41.8259 111.363 44.9619 111.956 46.8739C112.572 48.8659 112.983 52.2539 110.86 53.1459ZM97.6283 54.0529C97.9983 54.8669 97.9513 55.4639 97.4803 55.8529C96.8493 56.3819 96.2183 55.9529 95.8203 55.2709C95.5433 54.7959 95.2453 53.6939 95.9803 53.2369C96.6063 52.8519 97.3803 53.5079 97.6283 54.0529ZM109.728 49.8729C109.817 50.156 109.827 50.458 109.757 50.7463C109.686 51.0345 109.538 51.2979 109.328 51.5079C108.687 51.9299 107.986 51.2019 107.795 50.5869C107.561 49.8369 107.603 49.0209 108.095 48.6949C108.872 48.1869 109.56 49.2409 109.729 49.8729H109.728ZM106.536 57.4999C106.946 57.1149 107.088 56.8329 106.725 56.3639C106.034 55.6015 105.246 54.9328 104.381 54.3749C103.712 53.9049 104.438 52.7999 105.141 53.1749C105.932 53.6102 106.662 54.1482 107.311 54.7749C109.049 56.4229 108.821 57.9279 106.897 59.2839C106.13 59.8834 105.201 60.2393 104.229 60.3059C104.083 60.2744 103.949 60.2014 103.842 60.0957C103.736 59.99 103.663 59.856 103.63 59.7097C103.598 59.5633 103.609 59.4108 103.66 59.2703C103.712 59.1297 103.804 59.0071 103.923 58.9169C104.538 58.4239 105.663 58.3199 106.536 57.4999ZM101.004 63.7509C102.347 63.8824 103.698 63.6005 104.876 62.9429C105.801 62.4299 106.269 63.5979 105.605 64.1129C104.197 64.971 102.562 65.3824 100.915 65.2929C99.2885 65.2805 97.7077 64.7522 96.4003 63.7839C95.7813 63.2669 96.3733 62.1089 97.1393 62.5149C98.2979 63.2564 99.6304 63.6818 101.004 63.7489V63.7509ZM97.6663 70.0159C101.885 70.4549 106.703 70.9399 110.266 68.1449C114.622 64.7339 112.953 60.2979 111.393 56.7299C110.969 55.7599 112.311 55.3749 112.687 56.1379C114.894 60.6089 115.811 65.5169 111.533 69.0849C107.577 72.3849 102.271 72.0979 97.4733 71.4129C96.6833 71.2999 96.8773 69.9319 97.6663 70.0139V70.0159ZM137.589 50.8639C141.505 48.0559 145.609 45.4469 147.926 41.0559C150.458 36.2559 150.649 30.6729 150.8 25.3639C149.009 25.5421 147.219 25.0096 145.816 23.881C144.413 22.7524 143.51 21.1181 143.3 19.3299C143.277 19.1497 143.323 18.9674 143.427 18.8187C143.531 18.67 143.687 18.5655 143.864 18.5256C144.042 18.4858 144.227 18.5134 144.385 18.6031C144.543 18.6929 144.662 18.8383 144.718 19.0109C144.894 20.3492 145.567 21.5726 146.602 22.4384C147.638 23.3042 148.961 23.7491 150.309 23.6849C151.939 23.5909 152.53 23.7439 152.492 25.0849C152.331 30.7569 152.098 36.6249 149.444 41.7749C147.087 46.3509 142.733 49.4879 138.432 52.0979C137.709 52.5389 136.902 51.3539 137.589 50.8619V50.8639ZM152.139 2.6449C151.56 2.0449 152.439 1.0449 153.106 1.5449C154.925 2.99175 156.34 4.88243 157.216 7.0349C157.992 8.8519 158.723 11.9239 158.297 13.8669C158.233 14.0433 158.113 14.1939 157.956 14.2962C157.798 14.3985 157.612 14.4469 157.424 14.434C157.237 14.4211 157.059 14.3478 156.917 14.2249C156.775 14.1021 156.677 13.9364 156.637 13.7529C156.374 11.3129 156.604 10.1649 155.614 7.7059C154.8 5.80606 153.619 4.08552 152.139 2.6429V2.6449ZM160.318 13.8699C161.193 11.8287 161.714 9.65371 161.859 7.4379C161.928 5.21537 161.609 2.99788 160.916 0.884896C160.683 0.0608963 161.883 -0.352104 162.305 0.378896C163.316 2.1269 163.656 5.4789 163.585 7.5019C163.57 9.95814 162.972 12.3756 161.84 14.5559C161.73 14.7244 161.563 14.8479 161.37 14.9043C161.177 14.9607 160.97 14.9462 160.786 14.8635C160.603 14.7808 160.455 14.6352 160.369 14.453C160.283 14.2709 160.265 14.0641 160.318 13.8699V13.8699ZM162.782 16.8979C164.179 15.7903 165.374 14.4504 166.315 12.9369C167.238 11.3725 167.937 9.68594 168.389 7.9269C168.427 7.7385 168.537 7.57238 168.696 7.4641C168.855 7.35583 169.049 7.31401 169.239 7.34761C169.428 7.38121 169.596 7.48756 169.708 7.64387C169.82 7.80018 169.866 7.99403 169.836 8.1839C169.542 10.1733 168.838 12.0801 167.769 13.7839C166.748 15.4801 165.444 16.9886 163.913 18.2439C164.219 22.8769 164.388 27.5239 164.596 32.1619C165.302 47.8819 164.36 53.7149 150.812 64.2189C149.912 64.9189 148.912 63.4619 149.805 62.7679C163.352 52.2409 163.439 46.7119 162.814 31.2839C162.637 26.8929 162.408 22.5009 162.322 18.1079C162.316 17.8858 162.353 17.6646 162.433 17.4572C162.513 17.2498 162.633 17.0604 162.786 16.8999L162.782 16.8979ZM82.2183 68.5899C74.5443 77.9239 70.1243 87.1069 70.6923 99.4489C70.7166 99.6478 70.6609 99.8482 70.5374 100.006C70.4139 100.164 70.2328 100.266 70.0338 100.29C69.8349 100.315 69.6345 100.259 69.4767 100.135C69.3189 100.012 69.2166 99.8308 69.1923 99.6319C67.5923 87.9979 73.3763 76.0859 80.8543 67.5319C81.5893 66.6999 82.9303 67.7279 82.2183 68.5899ZM82.9763 115.022C78.7433 117.363 70.3223 119.851 65.4893 120.564C39.6423 124.381 47.2993 96.2119 55.3473 83.2639C59.6047 76.42 64.4557 69.9638 69.8443 63.9699C67.5279 57.7272 67.3364 50.8946 69.2993 44.5319C69.6313 43.4959 71.2753 43.1779 70.8683 45.0679C69.2433 52.6109 69.4973 55.9679 71.2803 62.9879C71.4607 63.4088 71.514 63.8732 71.4337 64.324C71.3534 64.7748 71.1429 65.1922 70.8283 65.5249C64.1795 72.31 58.6446 80.1031 54.4283 88.6159C48.2283 101.607 44.3923 122.216 65.9913 118.671C72.0473 117.678 76.6213 115.471 82.2763 113.749C83.0183 113.524 83.7483 114.6 82.9793 115.022H82.9763ZM219.436 138.977C220.952 142.313 226.251 152.694 226.264 155.711C226.281 159.765 222.387 162.1 219.151 158.956C215.221 155.14 213.519 150.9 208.484 146.79C205.365 144.244 201.249 142.363 199.042 138.979C198.201 137.771 197.677 136.371 197.517 134.908C197.357 133.444 197.566 131.964 198.126 130.603C198.496 129.69 200.026 130.144 199.787 131.103C199.452 132.285 199.38 133.527 199.574 134.741C199.768 135.954 200.225 137.111 200.912 138.13C202.668 140.553 207.112 142.851 209.701 144.974C214.915 149.242 216.311 152.474 220.287 156.951C222.247 159.158 224.154 158.243 224.162 155.685C224.168 153.392 218.951 143.524 217.355 140.126C215.995 137.226 213.963 133.657 213.255 130.677C213.015 129.677 214.464 128.444 215.037 129.99C216.28 133.353 218.093 136.017 219.439 138.977H219.436ZM261.426 55.4189C260.965 60.5719 255.621 81.0189 254.395 84.8969C252.123 92.0879 245.224 91.3639 239.66 88.7299C238.678 88.2649 239.319 86.7159 240.335 86.9759C244.514 88.0429 250.405 89.8049 252.092 84.2119C253.798 78.5539 259.167 60.4119 259.3 55.3749C259.341 53.8369 258.369 53.2749 257.186 54.1959C253.186 57.2959 247.695 67.0249 244.979 71.5369C244.55 72.2509 243.237 71.8369 243.547 70.9869C245.094 66.7529 252.455 54.5809 256.396 52.2129C256.922 51.862 257.539 51.6716 258.172 51.665C258.804 51.6583 259.424 51.8357 259.958 52.1754C260.491 52.5152 260.914 53.0026 261.175 53.5785C261.437 54.1544 261.525 54.7938 261.429 55.4189H261.426ZM195.575 128.2C196.194 122.922 196.508 117.614 196.516 112.3C200.921 102.193 204.446 90.4539 207.426 79.8699C211.992 81.281 216.418 83.108 220.649 85.3279C220.615 93.8649 218.743 123.634 217.173 126.251C211.864 129.07 199.048 128.527 195.575 128.2ZM240.724 68.9409C240.616 75.5619 235.841 87.3079 234.324 90.6059C229.947 87.3189 215.548 80.2279 207.024 77.4739C206.75 77.3856 206.451 77.4097 206.194 77.5409C205.937 77.6721 205.743 77.8997 205.653 78.1739C203.375 86.4739 200.994 94.7739 198.006 102.851C192.829 116.841 184.942 129.626 162.042 124.951C149.142 99.8799 194.652 51.5149 201.442 50.0989C209.901 48.3329 235.518 64.5999 240.724 68.9429V68.9409ZM96.5373 79.1409C95.6783 76.1789 89.9373 68.1189 87.9623 66.0049C88.4093 65.6916 88.7703 65.271 89.0123 64.7817C89.2543 64.2925 89.3695 63.7503 89.3473 63.2049C89.2703 62.3909 88.0043 62.1439 87.8413 63.0449C87.8072 63.4929 87.6545 63.9237 87.399 64.2933C87.1436 64.6628 86.7944 64.9578 86.3874 65.148C85.9803 65.3382 85.5301 65.4167 85.0827 65.3756C84.6353 65.3345 84.2069 65.1751 83.8413 64.9139C81.8253 63.6399 80.4023 60.0589 81.4413 57.7629C81.576 57.501 81.7655 57.2713 81.997 57.0893C82.2285 56.9073 82.4965 56.7774 82.7828 56.7084C83.069 56.6394 83.3668 56.6329 83.6558 56.6894C83.9448 56.746 84.2182 56.8641 84.4573 57.0359C84.6114 57.1327 84.7934 57.1754 84.9745 57.1573C85.1556 57.1392 85.3255 57.0613 85.4573 56.9359C86.8677 55.1141 87.8837 53.0188 88.4408 50.7832C88.9979 48.5476 89.0839 46.2205 88.6933 43.9499C94.0386 43.5866 99.2566 42.1544 104.038 39.7379C109.785 36.8309 114.068 33.5829 112.389 25.3809C111.389 20.4809 107.374 15.2379 101.018 16.7279C93.0013 18.6069 78.6333 31.7979 77.9543 39.7529C75.2373 40.3619 72.9793 41.6689 72.4833 44.5969C71.5933 49.8549 75.6593 56.0089 79.5713 59.1129C79.4513 62.9509 81.9953 67.8309 86.5963 66.7429C89.805 70.9131 92.7047 75.3122 95.2723 79.9049C95.7183 80.7119 96.7533 79.8879 96.5373 79.1409V79.1409ZM90.5093 27.1289C92.9362 24.2973 95.9981 22.0796 99.4453 20.6569C102.375 19.4179 107.286 19.2639 107.666 23.3409C107.663 23.5316 107.597 23.7158 107.479 23.8658C107.361 24.0158 107.198 24.1233 107.013 24.1721C106.829 24.2209 106.634 24.2083 106.457 24.1363C106.28 24.0643 106.132 23.9367 106.034 23.7729C104.665 20.7149 101.234 21.7939 98.8693 22.9479C96.1826 24.3249 93.7066 26.079 91.5163 28.1569C91.3785 28.2824 91.1974 28.3495 91.0111 28.3442C90.8247 28.3389 90.6477 28.2615 90.5173 28.1283C90.3868 27.9952 90.3131 27.8166 90.3117 27.6302C90.3102 27.4438 90.381 27.2641 90.5093 27.1289V27.1289ZM144.499 14.1219C144.781 13.2861 145.26 12.5307 145.897 11.9202C146.533 11.3097 147.308 10.8622 148.155 10.6159C149.002 10.3695 149.895 10.3316 150.76 10.5054C151.625 10.6792 152.434 11.0595 153.12 11.6139C154.047 12.3417 154.706 13.3567 154.993 14.4995C155.281 15.6423 155.181 16.8482 154.708 17.9279C154.632 18.1124 154.492 18.2632 154.313 18.3526C154.134 18.4419 153.929 18.4639 153.736 18.4144C153.542 18.365 153.373 18.2474 153.259 18.0832C153.146 17.9191 153.095 17.7195 153.116 17.5209C153.64 15.3409 153.088 13.2129 150.816 12.3859C149.859 12.0762 148.82 12.1415 147.909 12.5684C146.998 12.9953 146.284 13.7522 145.909 14.6859C145.835 14.8729 145.689 15.0225 145.503 15.1018C145.318 15.1811 145.109 15.1837 144.922 15.1089C144.735 15.0341 144.586 14.8881 144.506 14.703C144.427 14.5179 144.425 14.3089 144.499 14.1219V14.1219Z" fill="black"/>
</svg>
