<svg width="320" height="100" viewBox="0 0 320 100" fill="none" xmlns="http://www.w3.org/2000/svg">
<rect width="320" height="100" fill="white"/>
<path d="M91.056 67V66.52L91.92 66.232C92.56 66.008 92.992 65.704 93.216 65.32C93.44 64.936 93.552 64.424 93.552 63.784C93.584 61.864 93.6 59.928 93.6 57.976C93.6 56.024 93.6 54.072 93.6 52.12V50.2C93.6 48.28 93.6 46.36 93.6 44.44C93.6 42.488 93.584 40.552 93.552 38.632C93.552 37.992 93.456 37.48 93.264 37.096C93.104 36.712 92.72 36.408 92.112 36.184L91.056 35.8V35.32H114.288L114.624 43.288H114.144L111.408 38.248C111.088 37.64 110.72 37.16 110.304 36.808C109.888 36.456 109.312 36.28 108.576 36.28H100.848C100.816 38.552 100.8 40.872 100.8 43.24C100.8 45.608 100.8 47.96 100.8 50.296H105.792C106.528 50.296 107.072 50.136 107.424 49.816C107.776 49.496 108.112 49.032 108.432 48.424L109.44 46.6H109.92V55H109.44L108.384 53.176C108.064 52.6 107.728 52.136 107.376 51.784C107.056 51.432 106.528 51.256 105.792 51.256H100.8C100.8 53.496 100.8 55.64 100.8 57.688C100.8 59.704 100.816 61.688 100.848 63.64C100.848 64.888 101.456 65.704 102.672 66.088L104.112 66.52V67H91.056ZM116.651 67V66.52L117.227 66.328C118.379 65.944 118.955 65.144 118.955 63.928V38.248C118.955 37.608 118.827 37.128 118.571 36.808C118.315 36.456 117.867 36.2 117.227 36.04L116.603 35.896V35.416L125.387 33.352L125.963 33.784L125.771 40.504V56.92C125.771 58.104 125.771 59.288 125.771 60.472C125.803 61.624 125.819 62.776 125.819 63.928C125.819 64.568 125.947 65.096 126.203 65.512C126.459 65.896 126.891 66.184 127.499 66.376L128.123 66.52V67H116.651ZM142.385 67.72C139.953 67.72 137.841 67.224 136.049 66.232C134.257 65.208 132.865 63.768 131.873 61.912C130.913 60.056 130.433 57.88 130.433 55.384C130.433 52.888 130.945 50.728 131.969 48.904C133.025 47.08 134.449 45.672 136.241 44.68C138.065 43.688 140.113 43.192 142.385 43.192C144.657 43.192 146.689 43.688 148.481 44.68C150.273 45.64 151.681 47.032 152.705 48.856C153.761 50.68 154.289 52.856 154.289 55.384C154.289 57.912 153.793 60.104 152.801 61.96C151.841 63.784 150.465 65.208 148.673 66.232C146.913 67.224 144.817 67.72 142.385 67.72ZM142.385 66.76C143.505 66.76 144.401 66.44 145.073 65.8C145.745 65.16 146.225 64.024 146.513 62.392C146.833 60.76 146.993 58.456 146.993 55.48C146.993 52.472 146.833 50.152 146.513 48.52C146.225 46.888 145.745 45.752 145.073 45.112C144.401 44.472 143.505 44.152 142.385 44.152C141.265 44.152 140.353 44.472 139.649 45.112C138.977 45.752 138.481 46.888 138.161 48.52C137.873 50.152 137.729 52.472 137.729 55.48C137.729 58.456 137.873 60.76 138.161 62.392C138.481 64.024 138.977 65.16 139.649 65.8C140.353 66.44 141.265 66.76 142.385 66.76ZM165.956 67.144L158.564 46.84C158.212 45.816 157.508 45.096 156.452 44.68L155.636 44.392V43.912H167.396V44.392L166.676 44.584C165.428 44.968 165.012 45.736 165.428 46.888L169.892 60.472L173.876 49.912L172.964 47.176C172.74 46.472 172.5 45.944 172.244 45.592C172.02 45.208 171.716 44.936 171.332 44.776L170.516 44.392V43.912H180.452V44.392L179.78 44.68C179.3 44.872 179.012 45.128 178.916 45.448C178.82 45.768 178.884 46.248 179.108 46.888L183.524 60.232L188.084 46.984C188.532 45.768 188.292 45 187.364 44.68L186.308 44.392V43.912H192.068V44.392L190.916 44.728C190.372 44.888 189.972 45.144 189.716 45.496C189.492 45.816 189.284 46.264 189.092 46.84L182.18 67.144H179.732L174.404 51.448L168.74 67.144H165.956ZM204.255 67.72C202.079 67.72 200.095 67.256 198.303 66.328C196.543 65.368 195.135 63.992 194.079 62.2C193.055 60.376 192.543 58.152 192.543 55.528C192.543 52.936 193.103 50.728 194.223 48.904C195.375 47.048 196.895 45.64 198.783 44.68C200.703 43.688 202.799 43.192 205.071 43.192C206.927 43.192 208.495 43.496 209.775 44.104C211.055 44.712 212.031 45.512 212.703 46.504C213.375 47.464 213.711 48.472 213.711 49.528C213.711 50.424 213.439 51.128 212.895 51.64C212.351 52.12 211.647 52.36 210.783 52.36C209.855 52.36 209.103 52.024 208.527 51.352C207.951 50.68 207.615 49.8 207.519 48.712C207.487 48.008 207.503 47.416 207.567 46.936C207.631 46.424 207.631 45.912 207.567 45.4C207.439 44.856 207.231 44.504 206.943 44.344C206.687 44.152 206.319 44.056 205.839 44.056C203.887 44.056 202.367 44.904 201.279 46.6C200.223 48.296 199.695 51 199.695 54.712C199.695 57.944 200.287 60.424 201.471 62.152C202.687 63.848 204.543 64.696 207.039 64.696C208.543 64.696 209.759 64.424 210.687 63.88C211.615 63.336 212.511 62.52 213.375 61.432L213.855 61.816C213.055 63.704 211.823 65.16 210.159 66.184C208.495 67.208 206.527 67.72 204.255 67.72ZM216.069 67V66.52L216.741 66.328C217.349 66.168 217.765 65.896 217.989 65.512C218.245 65.128 218.389 64.616 218.421 63.976V48.952C218.421 48.248 218.309 47.736 218.085 47.416C217.861 47.064 217.429 46.824 216.789 46.696L216.069 46.504V46.024L224.277 43.24L224.757 43.72L225.141 46.984C226.197 45.928 227.397 45.032 228.741 44.296C230.117 43.56 231.541 43.192 233.013 43.192C234.549 43.192 235.781 43.512 236.709 44.152C237.637 44.76 238.341 45.72 238.821 47.032C240.069 45.848 241.413 44.92 242.853 44.248C244.325 43.544 245.749 43.192 247.125 43.192C249.397 43.192 251.061 43.736 252.117 44.824C253.205 45.912 253.749 47.624 253.749 49.96V64.024C253.749 65.272 254.325 66.056 255.477 66.376L256.005 66.52V67H244.917V66.52L245.397 66.376C246.005 66.184 246.421 65.896 246.645 65.512C246.901 65.128 247.029 64.616 247.029 63.976V49.288C247.029 47.944 246.789 47.032 246.309 46.552C245.829 46.04 245.061 45.784 244.005 45.784C243.173 45.784 242.357 45.976 241.557 46.36C240.789 46.712 239.973 47.256 239.109 47.992C239.269 48.504 239.365 49.064 239.397 49.672C239.461 50.28 239.493 50.92 239.493 51.592V64.024C239.525 65.272 240.101 66.056 241.221 66.376L241.653 66.52V67H230.517V66.52L231.189 66.328C231.797 66.136 232.213 65.864 232.437 65.512C232.693 65.128 232.821 64.616 232.821 63.976V49.336C232.821 48.056 232.581 47.144 232.101 46.6C231.653 46.056 230.869 45.784 229.749 45.784C229.013 45.784 228.277 45.976 227.541 46.36C226.805 46.712 226.037 47.24 225.237 47.944V64.024C225.237 65.272 225.797 66.056 226.917 66.376L227.349 66.52V67H216.069ZM266.186 67.72C264.618 67.72 263.21 67.528 261.962 67.144C260.714 66.792 259.562 66.344 258.506 65.8L258.554 60.088H259.034L260.666 62.968C261.37 64.248 262.138 65.208 262.97 65.848C263.834 66.456 264.922 66.76 266.234 66.76C267.77 66.76 269.002 66.424 269.93 65.752C270.89 65.048 271.37 64.12 271.37 62.968C271.37 61.912 271.034 61.048 270.362 60.376C269.69 59.704 268.442 59.096 266.618 58.552L264.602 57.928C262.65 57.352 261.114 56.456 259.994 55.24C258.874 54.024 258.314 52.536 258.314 50.776C258.314 48.664 259.146 46.872 260.81 45.4C262.474 43.928 264.858 43.192 267.962 43.192C269.21 43.192 270.378 43.336 271.466 43.624C272.586 43.88 273.658 44.28 274.682 44.824L274.394 50.008H273.914L272.234 47.032C271.626 45.976 271.018 45.24 270.41 44.824C269.834 44.376 268.954 44.152 267.77 44.152C266.682 44.152 265.658 44.456 264.698 45.064C263.738 45.672 263.258 46.536 263.258 47.656C263.258 48.744 263.658 49.608 264.458 50.248C265.29 50.888 266.506 51.48 268.106 52.024L270.266 52.648C272.57 53.352 274.218 54.328 275.21 55.576C276.202 56.792 276.698 58.264 276.698 59.992C276.698 62.328 275.77 64.2 273.914 65.608C272.09 67.016 269.514 67.72 266.186 67.72Z" fill="black"/>
<path d="M41 41.5C41 36.8056 44.8056 33 49.5 33H75V33C75 37.6944 71.1944 41.5 66.5 41.5H41V41.5Z" fill="#E85A0A"/>
<path d="M41 55.6667C41 50.9723 44.8056 47.1667 49.5 47.1667H63.6667V47.1667C63.6667 51.8611 59.8611 55.6667 55.1667 55.6667H41V55.6667Z" fill="#E85A0A"/>
<path d="M41 67C41 63.8704 43.5371 61.3333 46.6667 61.3333V61.3333C49.7963 61.3333 52.3333 63.8704 52.3333 67V67H41V67Z" fill="#E85A0A"/>
</svg>
