<svg width="158" height="40" viewBox="0 0 158 40" fill="none" xmlns="http://www.w3.org/2000/svg">
<path d="M32.66 31V30.7L33.2 30.52C33.6 30.38 33.87 30.19 34.01 29.95C34.15 29.71 34.22 29.39 34.22 28.99C34.24 27.79 34.25 26.58 34.25 25.36C34.25 24.14 34.25 22.92 34.25 21.7V20.5C34.25 19.3 34.25 18.1 34.25 16.9C34.25 15.68 34.24 14.47 34.22 13.27C34.22 12.87 34.16 12.55 34.04 12.31C33.94 12.07 33.7 11.88 33.32 11.74L32.66 11.5V11.2H47.18L47.39 16.18H47.09L45.38 13.03C45.18 12.65 44.95 12.35 44.69 12.13C44.43 11.91 44.07 11.8 43.61 11.8H38.78C38.76 13.22 38.75 14.67 38.75 16.15C38.75 17.63 38.75 19.1 38.75 20.56H41.87C42.33 20.56 42.67 20.46 42.89 20.26C43.11 20.06 43.32 19.77 43.52 19.39L44.15 18.25H44.45V23.5H44.15L43.49 22.36C43.29 22 43.08 21.71 42.86 21.49C42.66 21.27 42.33 21.16 41.87 21.16H38.75C38.75 22.56 38.75 23.9 38.75 25.18C38.75 26.44 38.76 27.68 38.78 28.9C38.78 29.68 39.16 30.19 39.92 30.43L40.82 30.7V31H32.66ZM48.6568 31V30.7L49.0168 30.58C49.7368 30.34 50.0968 29.84 50.0968 29.08V13.03C50.0968 12.63 50.0168 12.33 49.8568 12.13C49.6968 11.91 49.4168 11.75 49.0168 11.65L48.6268 11.56V11.26L54.1168 9.97L54.4768 10.24L54.3568 14.44V24.7C54.3568 25.44 54.3568 26.18 54.3568 26.92C54.3768 27.64 54.3868 28.36 54.3868 29.08C54.3868 29.48 54.4668 29.81 54.6268 30.07C54.7868 30.31 55.0568 30.49 55.4368 30.61L55.8268 30.7V31H48.6568ZM64.7408 31.45C63.2208 31.45 61.9008 31.14 60.7808 30.52C59.6608 29.88 58.7908 28.98 58.1708 27.82C57.5708 26.66 57.2708 25.3 57.2708 23.74C57.2708 22.18 57.5908 20.83 58.2308 19.69C58.8908 18.55 59.7808 17.67 60.9008 17.05C62.0408 16.43 63.3208 16.12 64.7408 16.12C66.1608 16.12 67.4308 16.43 68.5508 17.05C69.6708 17.65 70.5508 18.52 71.1908 19.66C71.8508 20.8 72.1808 22.16 72.1808 23.74C72.1808 25.32 71.8708 26.69 71.2508 27.85C70.6508 28.99 69.7908 29.88 68.6708 30.52C67.5708 31.14 66.2608 31.45 64.7408 31.45ZM64.7408 30.85C65.4408 30.85 66.0008 30.65 66.4208 30.25C66.8408 29.85 67.1408 29.14 67.3208 28.12C67.5208 27.1 67.6208 25.66 67.6208 23.8C67.6208 21.92 67.5208 20.47 67.3208 19.45C67.1408 18.43 66.8408 17.72 66.4208 17.32C66.0008 16.92 65.4408 16.72 64.7408 16.72C64.0408 16.72 63.4708 16.92 63.0308 17.32C62.6108 17.72 62.3008 18.43 62.1008 19.45C61.9208 20.47 61.8308 21.92 61.8308 23.8C61.8308 25.66 61.9208 27.1 62.1008 28.12C62.3008 29.14 62.6108 29.85 63.0308 30.25C63.4708 30.65 64.0408 30.85 64.7408 30.85ZM79.4727 31.09L74.8527 18.4C74.6327 17.76 74.1927 17.31 73.5327 17.05L73.0227 16.87V16.57H80.3727V16.87L79.9227 16.99C79.1427 17.23 78.8827 17.71 79.1427 18.43L81.9327 26.92L84.4227 20.32L83.8527 18.61C83.7127 18.17 83.5627 17.84 83.4027 17.62C83.2627 17.38 83.0727 17.21 82.8327 17.11L82.3227 16.87V16.57H88.5327V16.87L88.1127 17.05C87.8127 17.17 87.6327 17.33 87.5727 17.53C87.5127 17.73 87.5527 18.03 87.6927 18.43L90.4527 26.77L93.3027 18.49C93.5827 17.73 93.4327 17.25 92.8527 17.05L92.1927 16.87V16.57H95.7927V16.87L95.0727 17.08C94.7327 17.18 94.4827 17.34 94.3227 17.56C94.1827 17.76 94.0527 18.04 93.9327 18.4L89.6127 31.09H88.0827L84.7527 21.28L81.2127 31.09H79.4727ZM103.409 31.45C102.049 31.45 100.809 31.16 99.6891 30.58C98.5891 29.98 97.7091 29.12 97.0491 28C96.4091 26.86 96.0891 25.47 96.0891 23.83C96.0891 22.21 96.4391 20.83 97.1391 19.69C97.8591 18.53 98.8091 17.65 99.9891 17.05C101.189 16.43 102.499 16.12 103.919 16.12C105.079 16.12 106.059 16.31 106.859 16.69C107.659 17.07 108.269 17.57 108.689 18.19C109.109 18.79 109.319 19.42 109.319 20.08C109.319 20.64 109.149 21.08 108.809 21.4C108.469 21.7 108.029 21.85 107.489 21.85C106.909 21.85 106.439 21.64 106.079 21.22C105.719 20.8 105.509 20.25 105.449 19.57C105.429 19.13 105.439 18.76 105.479 18.46C105.519 18.14 105.519 17.82 105.479 17.5C105.399 17.16 105.269 16.94 105.089 16.84C104.929 16.72 104.699 16.66 104.399 16.66C103.179 16.66 102.229 17.19 101.549 18.25C100.889 19.31 100.559 21 100.559 23.32C100.559 25.34 100.929 26.89 101.669 27.97C102.429 29.03 103.589 29.56 105.149 29.56C106.089 29.56 106.849 29.39 107.429 29.05C108.009 28.71 108.569 28.2 109.109 27.52L109.409 27.76C108.909 28.94 108.139 29.85 107.099 30.49C106.059 31.13 104.829 31.45 103.409 31.45ZM110.793 31V30.7L111.213 30.58C111.593 30.48 111.853 30.31 111.993 30.07C112.153 29.83 112.243 29.51 112.263 29.11V19.72C112.263 19.28 112.193 18.96 112.053 18.76C111.913 18.54 111.643 18.39 111.243 18.31L110.793 18.19V17.89L115.923 16.15L116.223 16.45L116.463 18.49C117.123 17.83 117.873 17.27 118.713 16.81C119.573 16.35 120.463 16.12 121.383 16.12C122.343 16.12 123.113 16.32 123.693 16.72C124.273 17.1 124.713 17.7 125.013 18.52C125.793 17.78 126.633 17.2 127.533 16.78C128.453 16.34 129.343 16.12 130.203 16.12C131.623 16.12 132.663 16.46 133.323 17.14C134.003 17.82 134.343 18.89 134.343 20.35V29.14C134.343 29.92 134.703 30.41 135.423 30.61L135.753 30.7V31H128.823V30.7L129.123 30.61C129.503 30.49 129.763 30.31 129.903 30.07C130.063 29.83 130.143 29.51 130.143 29.11V19.93C130.143 19.09 129.993 18.52 129.693 18.22C129.393 17.9 128.913 17.74 128.253 17.74C127.733 17.74 127.223 17.86 126.723 18.1C126.243 18.32 125.733 18.66 125.193 19.12C125.293 19.44 125.353 19.79 125.373 20.17C125.413 20.55 125.433 20.95 125.433 21.37V29.14C125.453 29.92 125.813 30.41 126.513 30.61L126.783 30.7V31H119.823V30.7L120.243 30.58C120.623 30.46 120.883 30.29 121.023 30.07C121.183 29.83 121.263 29.51 121.263 29.11V19.96C121.263 19.16 121.113 18.59 120.813 18.25C120.533 17.91 120.043 17.74 119.343 17.74C118.883 17.74 118.423 17.86 117.963 18.1C117.503 18.32 117.023 18.65 116.523 19.09V29.14C116.523 29.92 116.873 30.41 117.573 30.61L117.843 30.7V31H110.793ZM142.116 31.45C141.136 31.45 140.256 31.33 139.476 31.09C138.696 30.87 137.976 30.59 137.316 30.25L137.346 26.68H137.646L138.666 28.48C139.106 29.28 139.586 29.88 140.106 30.28C140.646 30.66 141.326 30.85 142.146 30.85C143.106 30.85 143.876 30.64 144.456 30.22C145.056 29.78 145.356 29.2 145.356 28.48C145.356 27.82 145.146 27.28 144.726 26.86C144.306 26.44 143.526 26.06 142.386 25.72L141.126 25.33C139.906 24.97 138.946 24.41 138.246 23.65C137.546 22.89 137.196 21.96 137.196 20.86C137.196 19.54 137.716 18.42 138.756 17.5C139.796 16.58 141.286 16.12 143.226 16.12C144.006 16.12 144.736 16.21 145.416 16.39C146.116 16.55 146.786 16.8 147.426 17.14L147.246 20.38H146.946L145.896 18.52C145.516 17.86 145.136 17.4 144.756 17.14C144.396 16.86 143.846 16.72 143.106 16.72C142.426 16.72 141.786 16.91 141.186 17.29C140.586 17.67 140.286 18.21 140.286 18.91C140.286 19.59 140.536 20.13 141.036 20.53C141.556 20.93 142.316 21.3 143.316 21.64L144.666 22.03C146.106 22.47 147.136 23.08 147.756 23.86C148.376 24.62 148.686 25.54 148.686 26.62C148.686 28.08 148.106 29.25 146.946 30.13C145.806 31.01 144.196 31.45 142.116 31.45Z" fill="black"/>
<path d="M0 14C0 10.6863 2.68629 8 6 8H24V8C24 11.3137 21.3137 14 18 14H0V14Z" fill="#E85A0A"/>
<path d="M0 23.9999C0 20.6862 2.68629 17.9999 6 17.9999H16V17.9999C16 21.3136 13.3137 23.9999 10 23.9999H0V23.9999Z" fill="#E85A0A"/>
<path d="M0 32.0001C0 29.7909 1.79086 28.0001 4 28.0001V28.0001C6.20914 28.0001 8 29.7909 8 32.0001V32.0001H0V32.0001Z" fill="#E85A0A"/>
</svg>
