<svg width="372" height="50" viewBox="0 0 372 50" preserveAspectRatio="xMidYMid meet" fill="none" xmlns="http://www.w3.org/2000/svg">
<path d="M0 44C0 39.5817 3.58172 36 8 36H48V36C48 43.732 41.732 50 34 50H0V44Z" fill="#E85A0A"/>
<path d="M0 26C0 21.5817 3.58172 18 8 18H32V18C32 25.732 25.732 32 18 32H0V26Z" fill="#E85A0A"/>
<path d="M0 8C0 3.58172 3.58172 0 8 0H24V0C24 7.73199 17.732 14 10 14H0V8Z" fill="#E85A0A"/>
<path d="M62.408 47V46.36L63.752 45.848C64.648 45.5067 65.2027 45.1013 65.416 44.632C65.672 44.12 65.8 43.4373 65.8 42.584V9.176C65.8 8.32267 65.672 7.64 65.416 7.128C65.16 6.616 64.6053 6.21066 63.752 5.912L62.408 5.4V4.76H78.728V5.4L77.576 5.912C76.7653 6.21066 76.2107 6.63733 75.912 7.192C75.6133 7.704 75.464 8.38667 75.464 9.24V45.72H85.32C86.8987 45.72 88.0507 45.336 88.776 44.568C89.544 43.8 90.2693 42.6907 90.952 41.24L93.448 35.864H94.088L93.512 47H62.408ZM104.523 11.928C103.072 11.928 101.835 11.48 100.811 10.584C99.8292 9.64533 99.3385 8.472 99.3385 7.064C99.3385 5.61333 99.8292 4.44 100.811 3.544C101.835 2.648 103.072 2.2 104.523 2.2C105.973 2.2 107.189 2.648 108.171 3.544C109.152 4.44 109.643 5.61333 109.643 7.064C109.643 8.472 109.152 9.64533 108.171 10.584C107.189 11.48 105.973 11.928 104.523 11.928ZM96.9705 47V46.36L97.8665 46.104C98.7198 45.848 99.2958 45.464 99.5945 44.952C99.9358 44.44 100.107 43.7573 100.107 42.904V22.872C100.107 21.976 99.9358 21.3147 99.5945 20.888C99.2958 20.4187 98.7198 20.0987 97.8665 19.928L96.9705 19.736V19.096L108.683 15.32L109.323 15.96L109.131 25.048V42.968C109.131 43.8213 109.28 44.504 109.579 45.016C109.92 45.528 110.496 45.912 111.307 46.168L111.947 46.36V47H96.9705ZM114.78 47V46.36L115.676 46.104C117.169 45.6773 117.916 44.632 117.916 42.968V22.936C117.916 21.9973 117.767 21.3147 117.468 20.888C117.169 20.4187 116.593 20.0987 115.74 19.928L114.78 19.672V19.032L125.724 15.32L126.364 15.96L126.876 19.8C128.369 18.4773 130.055 17.3893 131.932 16.536C133.809 15.6827 135.665 15.256 137.5 15.256C140.316 15.256 142.471 16.024 143.964 17.56C145.5 19.096 146.268 21.4427 146.268 24.6V43.032C146.268 44.696 147.079 45.7413 148.7 46.168L149.276 46.36V47H134.172V46.36L135.004 46.104C136.497 45.6347 137.244 44.5893 137.244 42.968V22.552C137.244 19.8213 135.879 18.456 133.148 18.456C131.271 18.456 129.223 19.3947 127.004 21.272V43.032C127.004 44.696 127.751 45.7413 129.244 46.168L129.82 46.36V47H114.78ZM167.844 15.256C170.617 15.256 172.985 15.832 174.948 16.984C176.911 18.0933 178.404 19.6293 179.428 21.592C180.495 23.512 181.028 25.7093 181.028 28.184C181.028 28.6533 181.007 29.144 180.964 29.656C180.921 30.1253 180.836 30.552 180.708 30.936H161.636C161.679 35.544 162.489 38.872 164.068 40.92C165.689 42.9253 168.079 43.928 171.236 43.928C173.369 43.928 175.097 43.5867 176.42 42.904C177.743 42.2213 178.98 41.2187 180.132 39.896L180.772 40.472C179.449 42.8187 177.679 44.6533 175.46 45.976C173.284 47.2987 170.66 47.96 167.588 47.96C164.559 47.96 161.871 47.32 159.524 46.04C157.177 44.7173 155.343 42.84 154.02 40.408C152.697 37.976 152.036 35.0747 152.036 31.704C152.036 28.2053 152.804 25.24 154.34 22.808C155.876 20.3333 157.839 18.456 160.228 17.176C162.66 15.896 165.199 15.256 167.844 15.256ZM167.652 16.536C166.415 16.536 165.348 16.92 164.452 17.688C163.599 18.4133 162.916 19.736 162.404 21.656C161.935 23.5333 161.679 26.2 161.636 29.656H172.58C173.007 25.0053 172.836 21.656 172.068 19.608C171.3 17.56 169.828 16.536 167.652 16.536ZM193.312 47.96C190.837 47.96 188.746 47.256 187.04 45.848C185.376 44.44 184.544 42.4133 184.544 39.768C184.544 37.7627 185.568 35.928 187.616 34.264C189.664 32.5573 192.885 31.2773 197.28 30.424C197.962 30.296 198.73 30.168 199.583 30.04C200.437 29.8693 201.333 29.6987 202.272 29.528V24.472C202.272 21.5707 201.909 19.544 201.184 18.392C200.501 17.1973 199.413 16.6 197.92 16.6C196.896 16.6 196.085 16.9413 195.488 17.624C194.89 18.264 194.506 19.3947 194.336 21.016L194.208 21.72C194.122 23.5547 193.674 24.8987 192.864 25.752C192.053 26.6053 191.05 27.032 189.856 27.032C188.746 27.032 187.829 26.6907 187.104 26.008C186.378 25.3253 186.016 24.408 186.016 23.256C186.016 21.5067 186.613 20.0347 187.808 18.84C189.045 17.6453 190.666 16.7493 192.672 16.152C194.677 15.5547 196.853 15.256 199.2 15.256C202.997 15.256 205.92 16.1947 207.968 18.072C210.058 19.9067 211.104 22.9147 211.104 27.096V41.24C211.104 43.16 212 44.12 213.792 44.12H215.2L215.776 44.632C214.965 45.656 214.069 46.4453 213.088 47C212.149 47.5547 210.805 47.832 209.056 47.832C207.178 47.832 205.685 47.4053 204.576 46.552C203.509 45.656 202.805 44.4827 202.464 43.032C201.184 44.3973 199.861 45.5707 198.496 46.552C197.173 47.4907 195.445 47.96 193.312 47.96ZM197.216 44.056C198.069 44.056 198.858 43.864 199.583 43.48C200.352 43.0533 201.248 42.4133 202.272 41.56V30.808C201.845 30.8933 201.418 30.9787 200.992 31.064C200.565 31.1493 200.074 31.2347 199.52 31.32C197.557 31.832 195.978 32.7067 194.784 33.944C193.632 35.1387 193.056 36.76 193.056 38.808C193.056 40.5573 193.461 41.88 194.272 42.776C195.082 43.6293 196.064 44.056 197.216 44.056ZM216.968 47V46.36L217.928 46.104C218.781 45.848 219.357 45.464 219.656 44.952C219.997 44.44 220.168 43.7787 220.168 42.968V22.936C220.168 21.9973 219.997 21.3147 219.656 20.888C219.357 20.4187 218.781 20.0987 217.928 19.928L216.968 19.672V19.032L227.976 15.32L228.616 15.96L229.192 21.464V21.976C229.789 20.7813 230.557 19.6933 231.496 18.712C232.477 17.688 233.544 16.856 234.696 16.216C235.89 15.576 237.064 15.256 238.216 15.256C239.837 15.256 241.074 15.704 241.928 16.6C242.781 17.496 243.208 18.6267 243.208 19.992C243.208 21.4427 242.781 22.5733 241.928 23.384C241.117 24.152 240.136 24.536 238.984 24.536C237.192 24.536 235.613 23.64 234.248 21.848L234.12 21.72C233.693 21.1227 233.202 20.8027 232.648 20.76C232.093 20.6747 231.581 20.9307 231.112 21.528C230.685 21.912 230.322 22.3813 230.024 22.936C229.768 23.448 229.512 24.0453 229.256 24.728V42.584C229.256 44.2907 230.002 45.3573 231.496 45.784L233.544 46.36V47H216.968ZM267.362 48.152C263.223 48.152 259.468 47.32 256.098 45.656C252.77 43.9493 250.124 41.432 248.161 38.104C246.199 34.776 245.218 30.7013 245.218 25.88C245.218 22.2107 245.815 18.9893 247.01 16.216C248.204 13.4427 249.826 11.1173 251.874 9.24C253.964 7.36267 256.354 5.95467 259.042 5.016C261.772 4.07733 264.652 3.608 267.682 3.608C270.114 3.608 272.354 3.88533 274.402 4.44C276.45 4.99467 278.37 5.76267 280.162 6.744L280.418 14.616H279.778L276.578 9.496C276.151 8.68533 275.682 7.96 275.17 7.32C274.658 6.63733 274.018 6.12533 273.25 5.784C272.61 5.48533 271.97 5.272 271.33 5.144C270.732 4.97333 269.964 4.888 269.026 4.888C266.551 4.888 264.29 5.54933 262.242 6.872C260.236 8.19467 258.615 10.392 257.378 13.464C256.183 16.4933 255.586 20.6533 255.586 25.944C255.586 31.192 256.162 35.352 257.314 38.424C258.466 41.4533 260.023 43.6293 261.986 44.952C263.991 46.232 266.231 46.872 268.706 46.872C270.071 46.872 271.159 46.7867 271.97 46.616C272.78 46.4027 273.591 46.104 274.402 45.72C275.212 45.3787 275.831 44.888 276.257 44.248C276.684 43.5653 277.068 42.84 277.41 42.072L280.226 35.8H280.866L280.674 44.952C278.882 45.8907 276.876 46.6587 274.658 47.256C272.439 47.8533 270.007 48.152 267.362 48.152ZM283.78 47V46.36L285.06 45.912C286.511 45.4427 287.236 44.2267 287.236 42.264V9.496C287.236 8.64267 287.129 7.96 286.916 7.448C286.745 6.936 286.255 6.50933 285.444 6.168L283.78 5.4V4.76H296.132L307.972 35.736L319.108 4.76H331.716V5.4L330.692 5.784C329.881 6.08266 329.327 6.50933 329.028 7.064C328.729 7.576 328.58 8.25866 328.58 9.112V42.584C328.58 43.4373 328.687 44.0987 328.9 44.568C329.113 45.0373 329.625 45.4427 330.436 45.784L331.716 46.36V47H315.78V46.36L317.124 45.784C317.935 45.4427 318.447 45.0373 318.66 44.568C318.873 44.0987 318.98 43.4373 318.98 42.584V28.184L319.108 9.88L305.732 47H302.532L288.58 10.328L288.772 26.264V42.392C288.772 43.3307 288.9 44.0987 289.156 44.696C289.455 45.2507 290.009 45.656 290.82 45.912L292.228 46.36V47H283.78ZM348.293 48.152C345.946 48.152 343.557 47.8533 341.125 47.256C338.693 46.7013 336.666 45.9547 335.045 45.016L335.365 36.312H336.005L337.989 40.472C338.586 41.6667 339.226 42.7333 339.909 43.672C340.592 44.568 341.53 45.272 342.725 45.784C343.578 46.2107 344.389 46.5093 345.157 46.68C345.968 46.808 346.864 46.872 347.845 46.872C350.448 46.872 352.496 46.168 353.989 44.76C355.525 43.352 356.293 41.5387 356.293 39.32C356.293 37.2293 355.781 35.608 354.757 34.456C353.733 33.2613 352.09 32.1093 349.829 31L347.205 29.848C343.536 28.2267 340.656 26.3707 338.565 24.28C336.517 22.1467 335.493 19.3307 335.493 15.832C335.493 13.3147 336.133 11.1387 337.413 9.304C338.736 7.46933 340.549 6.06133 342.853 5.08C345.2 4.09866 347.93 3.608 351.045 3.608C353.306 3.608 355.44 3.90666 357.445 4.504C359.493 5.10133 361.264 5.912 362.757 6.936L362.373 14.616H361.733L359.109 9.816C358.384 8.32266 357.658 7.27733 356.933 6.68C356.208 6.04 355.376 5.592 354.437 5.336C353.882 5.16533 353.37 5.05866 352.901 5.016C352.432 4.93066 351.834 4.888 351.109 4.888C348.933 4.888 347.098 5.528 345.605 6.808C344.112 8.04533 343.365 9.73066 343.365 11.864C343.365 14.04 343.941 15.7893 345.093 17.112C346.245 18.392 347.93 19.544 350.149 20.568L353.093 21.848C357.189 23.64 360.133 25.56 361.925 27.608C363.717 29.6133 364.613 32.216 364.613 35.416C364.613 39.1707 363.184 42.2427 360.325 44.632C357.509 46.9787 353.498 48.152 348.293 48.152Z" fill="black"/>
</svg>
